<?xml version="1.0" encoding="UTF-8" standalone="no"?>
<!DOCTYPE svg PUBLIC "-//W3C//DTD SVG 20010904//EN"
              "http://www.w3.org/TR/2001/REC-SVG-20010904/DTD/svg10.dtd">

<svg xmlns="http://www.w3.org/2000/svg"
     width="3.93056in" height="1.30556in"
     viewBox="0 0 283 94">
  <path id="Path"
        fill="black" stroke="black" stroke-width="1"
        d="M 18.75,53.00
           C 24.33,53.00 28.77,51.56 32.06,48.67
             35.35,45.79 37.00,41.88 37.00,36.95
             37.00,32.34 35.46,28.52 32.39,25.50
             30.64,23.76 28.61,22.57 26.30,21.94
             24.00,21.31 20.62,21.00 16.14,21.00
             16.14,21.00 7.00,21.00 7.00,21.00
             7.00,21.00 7.00,75.00 7.00,75.00
             7.00,75.00 15.00,75.00 15.00,75.00
             15.00,75.00 15.00,53.00 15.00,53.00
             15.00,53.00 18.75,53.00 18.75,53.00 Z
           M 15.00,29.00
           C 15.00,29.00 17.64,29.00 17.64,29.00
             25.21,29.00 29.00,31.62 29.00,36.88
             29.00,42.29 25.33,45.00 17.98,45.00
             17.98,45.00 15.00,45.00 15.00,45.00
             15.00,45.00 15.00,29.00 15.00,29.00 Z
           M 72.72,46.70
           C 74.91,43.95 76.00,40.67 76.00,36.84
             76.00,31.95 74.27,28.01 70.80,25.02
             67.65,22.34 62.54,21.00 55.47,21.00
             55.47,21.00 46.00,21.00 46.00,21.00
             46.00,21.00 46.00,75.00 46.00,75.00
             46.00,75.00 54.00,75.00 54.00,75.00
             54.00,75.00 54.00,52.78 54.00,52.78
             54.00,52.78 55.47,52.78 55.47,52.78
             55.47,52.78 70.81,75.00 70.81,75.00
             70.81,75.00 80.78,75.00 80.78,75.00
             80.78,75.00 64.09,51.98 64.09,51.98
             67.66,51.21 70.54,49.45 72.72,46.70 Z
           M 54.00,29.00
           C 54.00,29.00 56.88,29.00 56.88,29.00
             64.29,29.00 68.00,31.78 68.00,37.33
             68.00,43.26 64.19,46.22 56.56,46.22
             56.56,46.22 54.00,46.22 54.00,46.22
             54.00,46.22 54.00,29.00 54.00,29.00 Z
           M 101.14,48.00
           C 101.14,48.00 101.14,41.00 101.14,41.00
             101.14,41.00 95.00,41.00 95.00,41.00
             95.00,41.00 95.00,28.00 95.00,28.00
             95.00,28.00 87.00,28.00 87.00,28.00
             87.00,28.00 87.00,41.00 87.00,41.00
             87.00,41.00 83.62,41.00 83.62,41.00
             83.62,41.00 83.62,48.00 83.62,48.00
             83.62,48.00 87.00,48.00 87.00,48.00
             87.00,48.00 87.00,75.00 87.00,75.00
             87.00,75.00 95.00,75.00 95.00,75.00
             95.00,75.00 95.00,48.00 95.00,48.00
             95.00,48.00 101.14,48.00 101.14,48.00 Z
           M 138.22,58.12
           C 138.22,52.46 136.77,48.03 133.86,44.83
             130.92,41.61 126.94,40.00 121.91,40.00
             116.91,40.00 112.89,41.65 109.88,44.94
             106.88,48.27 105.38,52.63 105.38,58.02
             105.38,63.45 106.92,67.82 110.02,71.11
             113.11,74.37 117.21,76.00 122.33,76.00
             124.11,76.00 125.76,75.82 127.28,75.47
             128.80,75.11 130.22,74.55 131.53,73.78
             132.84,73.01 134.07,72.03 135.22,70.84
             136.38,69.65 137.47,68.21 138.50,66.55
             138.50,66.55 131.81,63.00 131.81,63.00
             130.20,65.30 128.75,66.88 127.48,67.72
             126.20,68.57 124.58,69.00 122.61,69.00
             120.08,69.00 118.00,68.20 116.38,66.59
             114.76,64.96 113.85,62.76 113.64,60.00
             113.64,60.00 138.17,60.00 138.17,60.00
             138.17,60.00 138.22,58.12 138.22,58.12 Z
           M 114.17,54.00
           C 114.42,52.91 114.79,51.93 115.28,51.08
             115.78,50.23 116.38,49.50 117.06,48.89
             117.76,48.28 118.53,47.81 119.38,47.48
             120.22,47.16 121.12,47.00 122.08,47.00
             126.30,47.00 128.96,49.34 130.06,54.00
             130.06,54.00 114.17,54.00 114.17,54.00 Z
           M 147.00,75.00
           C 147.00,75.00 155.00,75.00 155.00,75.00
             155.00,75.00 155.00,58.53 155.00,58.53
             155.00,54.28 155.55,51.30 156.67,49.59
             157.80,47.87 159.71,47.00 162.42,47.00
             164.90,47.00 166.61,47.66 167.55,48.97
             168.52,50.25 169.00,52.57 169.00,55.94
             169.00,55.94 169.00,75.00 169.00,75.00
             169.00,75.00 177.00,75.00 177.00,75.00
             177.00,75.00 177.00,54.12 177.00,54.12
             177.00,49.32 176.02,45.86 174.06,43.73
             171.78,41.25 168.61,40.00 164.55,40.00
             161.00,40.00 157.82,41.39 155.00,44.17
             155.00,44.17 155.00,41.00 155.00,41.00
             155.00,41.00 147.00,41.00 147.00,41.00
             147.00,41.00 147.00,75.00 147.00,75.00 Z
           M 211.00,44.98
           C 207.82,41.66 204.23,40.00 200.22,40.00
             195.58,40.00 191.72,41.70 188.62,45.11
             185.54,48.52 184.00,52.77 184.00,57.88
             184.00,63.07 185.54,67.41 188.62,70.89
             191.74,74.30 195.68,76.00 200.44,76.00
             204.21,76.00 207.73,74.47 211.00,71.41
             211.00,71.41 211.00,75.00 211.00,75.00
             211.00,75.00 219.00,75.00 219.00,75.00
             219.00,75.00 219.00,41.00 219.00,41.00
             219.00,41.00 211.00,41.00 211.00,41.00
             211.00,41.00 211.00,44.98 211.00,44.98 Z
           M 194.81,50.09
           C 196.71,48.03 199.07,47.00 201.89,47.00
             204.88,47.00 207.31,48.02 209.19,50.06
             211.06,52.15 212.00,54.80 212.00,58.02
             212.00,61.23 211.06,63.89 209.19,65.97
             207.31,67.99 204.85,69.00 201.81,69.00
             198.97,69.00 196.61,67.96 194.73,65.88
             192.91,63.80 192.00,61.12 192.00,57.84
             192.00,54.77 192.94,52.19 194.81,50.09 Z
           M 229.00,75.00
           C 229.00,75.00 237.00,75.00 237.00,75.00
             237.00,75.00 237.00,58.53 237.00,58.53
             237.00,54.28 237.55,51.30 238.67,49.59
             239.80,47.87 241.71,47.00 244.42,47.00
             246.90,47.00 248.61,47.66 249.55,48.97
             250.52,50.25 251.00,52.57 251.00,55.94
             251.00,55.94 251.00,75.00 251.00,75.00
             251.00,75.00 259.00,75.00 259.00,75.00
             259.00,75.00 259.00,54.12 259.00,54.12
             259.00,49.32 258.02,45.86 256.06,43.73
             253.78,41.25 250.61,40.00 246.55,40.00
             243.00,40.00 239.82,41.39 237.00,44.17
             237.00,44.17 237.00,41.00 237.00,41.00
             237.00,41.00 229.00,41.00 229.00,41.00
             229.00,41.00 229.00,75.00 229.00,75.00 Z
           M 282.14,48.00
           C 282.14,48.00 282.14,41.00 282.14,41.00
             282.14,41.00 276.00,41.00 276.00,41.00
             276.00,41.00 276.00,28.00 276.00,28.00
             276.00,28.00 268.00,28.00 268.00,28.00
             268.00,28.00 268.00,41.00 268.00,41.00
             268.00,41.00 264.62,41.00 264.62,41.00
             264.62,41.00 264.62,48.00 264.62,48.00
             264.62,48.00 268.00,48.00 268.00,48.00
             268.00,48.00 268.00,75.00 268.00,75.00
             268.00,75.00 276.00,75.00 276.00,75.00
             276.00,75.00 276.00,48.00 276.00,48.00
             276.00,48.00 282.14,48.00 282.14,48.00 Z" />
</svg>
